<svg height="512" viewBox="0 0 128 128" width="512" xmlns="http://www.w3.org/2000/svg"><g><path d="m16.812 117h94.375v9.247h-94.375z" fill="#465a61"/><path d="m101.687 117h-75.375v-97.635a4 4 0 0 1 4-4h67.375a4 4 0 0 1 4 4z" fill="#596c76"/><path d="m34.75 1.747h29.25v13.618h-29.25z" fill="#76e2f8"/><path d="m52.747 94.495h22.505v22.505h-22.505z" fill="#fff5f5"/><path d="m46.625 86.625h34.75v7.87h-34.75z" fill="#ff9100"/><g fill="#fff5f5"><path d="m36.312 25.366h20.313v9.64h-20.313z"/><path d="m36.312 46.171h20.313v9.64h-20.313z"/><path d="m36.312 66.977h20.313v9.64h-20.313z"/><path d="m71.375 25.366h20.312v9.64h-20.312z"/><path d="m71.375 46.171h20.312v9.64h-20.312z"/><path d="m71.375 66.977h20.312v9.64h-20.312z"/></g></g></svg>